<svg id="Layer_1" data-name="Layer 1" xmlns="http://www.w3.org/2000/svg" xmlns:xlink="http://www.w3.org/1999/xlink" viewBox="0 0 1000 338.07"><defs><style>.cls-1{fill:#3c4751;}.cls-2{fill:url(#linear-gradient);}.cls-3{fill:url(#linear-gradient-2);}.cls-4{fill:url(#linear-gradient-3);}</style><linearGradient id="linear-gradient" x1="415.79" y1="242.16" x2="415.49" y2="241.97" gradientTransform="matrix(778.85, 0, 0, -778.14, -323586.33, 188535.68)" gradientUnits="userSpaceOnUse"><stop offset="0" stop-color="#245396"/><stop offset="0.15" stop-color="#26599a"/><stop offset="0.37" stop-color="#2a6ba6"/><stop offset="0.61" stop-color="#3287ba"/><stop offset="0.88" stop-color="#3cafd6"/><stop offset="1" stop-color="#42c4e4"/></linearGradient><linearGradient id="linear-gradient-2" x1="414.68" y1="242.4" x2="414.91" y2="242.6" gradientTransform="matrix(445.19, 0, 0, -383.09, -184455.13, 93051.25)" gradientUnits="userSpaceOnUse"><stop offset="0" stop-color="#216ab4"/><stop offset="1" stop-color="#2861ae"/></linearGradient><linearGradient id="linear-gradient-3" x1="414.49" y1="243.23" x2="414.69" y2="243.06" gradientTransform="matrix(325.54, 0, 0, -256.68, -134835.09, 62603.58)" gradientUnits="userSpaceOnUse"><stop offset="0" stop-color="#2859a9"/><stop offset="0.18" stop-color="#2d66b0"/><stop offset="0.51" stop-color="#398ac3"/><stop offset="0.96" stop-color="#4dc2e2"/><stop offset="1" stop-color="#4fc7e5"/></linearGradient></defs><path class="cls-1" d="M371.63,226.22q8.19,23.67,33.07,23.68,12.44,0,20.17-6.23A42.72,42.72,0,0,0,437,227.89a72.81,72.81,0,0,0,5.92-21.4,183.93,183.93,0,0,0,1.52-23.37q0-10.62-.76-23.67a98.79,98.79,0,0,0-4.4-24.43,45.85,45.85,0,0,0-11.53-19.12q-7.87-7.74-23.05-7.74-14.56,0-22.3,7.43A45.85,45.85,0,0,0,370.88,134a91,91,0,0,0-4.71,23.21q-.9,12.3-.91,21.7a202.5,202.5,0,0,0,1.37,24.89,126.6,126.6,0,0,0,5,22.46ZM347,268.16q-32.47-27-32.47-88.83,0-26.69,6.22-46.84t17.91-33.81a74.92,74.92,0,0,1,28.37-20.62q16.69-7,37.64-7t37.78,7A74,74,0,0,1,471,98.83q11.69,13.8,17.91,34t6.22,46.54q0,26.37-6.22,46.53T471,259.67a74.5,74.5,0,0,1-28.53,20.61q-16.83,7-37.78,7-34.6,0-57.67-19.1ZM629.59,222.4l7.57,22.14q6.06,20,14.55,25.78-13.34,14.87-31.82,14.86-10,0-15.15-4.7T595.65,264l-9.09-26.08q-3-9.41-7-12.59T569,222.1c-4.44,0-7.58.1-9.39.3v60.36a146.62,146.62,0,0,1-46.06,0V61.65l2.12-2.12h18.18q14.24,0,20,6.37T559.59,88v95.23h4.85q5.44,0,8.48-5.46l15.76-30.33q8.48-17.28,26.66-17.28,8.79,0,26.37.6l1.82,2.43-23.34,45.19a48.2,48.2,0,0,1-15.45,17.9q18.18,6.66,24.85,26.08ZM811,139.58a58.76,58.76,0,0,1-3,19,63.45,63.45,0,0,1-8,16.07,57.52,57.52,0,0,1-11.83,12.44,53.73,53.73,0,0,1-14.1,8q15.76,5.76,23.35,27.9l9.1,25.79q5.16,15.16,15.16,22.44-4.54,6.07-13.64,10.16a48.24,48.24,0,0,1-20,4.1q-10.92,0-17-6.22t-11.22-21.69l-10.92-31.85q-3.33-9.09-9-13.95T723,206.92H710.61v75.83a135.28,135.28,0,0,1-24.27,1.82,130.12,130.12,0,0,1-24-1.82V77.1L664.5,75q26.4-.6,44.44-.91t28.36-.3a105.32,105.32,0,0,1,30.33,4.09,62.89,62.89,0,0,1,23.2,12.29,55.23,55.23,0,0,1,14.86,20.62Q811,123.21,811,139.58ZM710.42,110.23v59.31q13.67,0,23.37-.46t15.64-3.63a21.11,21.11,0,0,0,9-8.92q3-5.76,3-16.64,0-29.35-28.54-29.35h-12.6c-3.74,0-7-.11-9.86-.31Zm215.09,21.12a88,88,0,0,1,19.41-1.82,76.52,76.52,0,0,1,22.44,3.34l1.22,3-42.77,66.14,47.92,72.81Q958,285.48,942.49,285.48q-16.68,0-25.78-14.26l-19.72-30-24.26,41.57q-5.76,1.81-19.87,1.82t-23.5-3.64l-1.52-2.73,46.41-72.51-43.07-67.05a54.34,54.34,0,0,1,32.15-10.32q8.49,0,13.65,3.49t10.31,11.38l16.07,24.88,22.15-36.72Z"/><path class="cls-2" d="M229.48,131.73q35.1-6.75,39.8,15.89c2.68,12.92,2.71,34.49-6,58.17s-19.36,38.08-33,50c-31.85,27.81-65.3,36-106.42,28.49s-74.67-37.38-90.61-79.09-3-94.88,25.92-123.81,67.36-44.54,109.78-36.9a122.12,122.12,0,0,1,45,17.19A113.6,113.6,0,0,1,236,79.77a37.62,37.62,0,0,1-16.45,11.86c-9.23,3.23-19,2.27-28.15-3.07a80.71,80.71,0,0,0-38-11c-16.4-.68-40.83.39-66.89,25.48s-30.3,64.73-20.9,91.13,35.56,55.46,75.74,58.47,69.4-18.09,85.67-49.4q16.26-31.31,2.53-71.46Z"/><path class="cls-3" d="M136.69,210.83q-14.4-14.4-.06-28.74l70-70c11-9.89,19.71-13.5,26.72-14.23s15.25,2.67,22,9.46c3.13,3.13,7.77,14.53,10.58,24.71a92.25,92.25,0,0,1,3.27,15.63q-11.56-13.2-20.71-12.07T224.51,151.8l-59,59q-14.4,14.38-28.79,0Z"/><path class="cls-4" d="M87.74,156.12q14.39-14.4,28.79,0l23,23q14.9,15.12,24.05,16.25a46.37,46.37,0,0,0,19.14-1.85l-28.61,28.61q-7.56,7.17-14.45,7.36t-14.28-6.93L87.68,184.85q-14.34-14.34.06-28.73Z"/></svg>
